<svg id="Layer_1" data-name="Layer 1" xmlns="http://www.w3.org/2000/svg" viewBox="0 0 337.62 337.02"><defs><style>.cls-1{fill:#24356e;}</style></defs><path class="cls-1" d="M225,63.12a4,4,0,0,0,1.48,1.32l62.37,34V76.15H274.1a7.86,7.86,0,0,1,0-15.72h14.72v-10l-52-22.59a4.84,4.84,0,0,0-6,1.85L218.32,49.13a4.29,4.29,0,0,0,.16,4.86Z"/><path class="cls-1" d="M236.55,293.74H221.84l-.39-70.07c27.56-44.34,56.28-90.79,64.67-104.56-4.91-2.69-44.32-24.89-65.75-36-4.11-2.11-7.7-4.43-10.34-7.91-4.65-6.18-8.39-13-13.14-19.11,0,0,0,0,0-.1-2.64-3.38-1.9-5.59.21-8.65,5.75-8.34,11.18-16.79,17-25.65H184.75a3.45,3.45,0,0,0-2.95,1.58L145.75,78.38a5.86,5.86,0,0,0-.73,4.7l36.41,135.15a12.56,12.56,0,0,1-1.38,9.81L134,305.1,88,228.05a12.77,12.77,0,0,1-1.36-9.83L123.09,83.06a5.78,5.78,0,0,0-.75-4.68l-36-55.11a3.51,3.51,0,0,0-2.94-1.59H27.62a2.79,2.79,0,0,0-1.51,5.13L109.4,80.58a5.81,5.81,0,0,1,2.43,6.49L73.61,219.41a9.8,9.8,0,0,0,.94,7.63l50.24,86.52a3.57,3.57,0,0,0,3.18,1.78l2.56-.07,2.56.05h31.08a5.88,5.88,0,0,1,.48-1c4.16-6.3,18-28.32,34.95-55.54l17.56,56.54h36.2l-4.13-12.44A13.38,13.38,0,0,0,236.55,293.74Z"/><path class="cls-1" d="M296.05,293.74H281.27L279,178.56l-26.35,43.78,24,93H312.8l-4.16-12.5A13.28,13.28,0,0,0,296.05,293.74Z"/></svg>