<?xml version="1.0" standalone="no"?>
<!DOCTYPE svg PUBLIC "-//W3C//DTD SVG 20010904//EN"
 "http://www.w3.org/TR/2001/REC-SVG-20010904/DTD/svg10.dtd">
<svg version="1.0" xmlns="http://www.w3.org/2000/svg"
 width="1635.000000pt" height="209.000000pt" viewBox="0 0 1635.000000 209.000000"
 preserveAspectRatio="xMidYMid meet">

<g transform="translate(0.000000,209.000000) scale(0.100000,-0.100000)"
fill="#000000" stroke="none">
<path d="M1863 1498 l-373 -373 -330 330 -330 330 -370 -370 -370 -370 367
-367 368 -368 325 325 c179 179 330 325 335 325 6 0 174 -164 375 -365 l365
-365 2255 0 2255 0 380 380 380 380 340 -340 340 -340 335 335 c184 184 339
335 345 335 6 0 179 -169 385 -375 l375 -375 2255 0 2255 0 365 365 c201 201
369 365 375 365 6 0 156 -146 335 -325 l325 -325 367 367 368 368 -367 367
-368 368 -327 -327 -326 -326 -379 371 -378 372 -2245 0 -2245 0 -382 -382
-383 -383 -340 340 -340 340 -338 -338 c-185 -185 -342 -337 -347 -337 -6 0
-181 171 -390 380 l-380 380 -2245 0 -2245 0 -372 -372z m5124 -120 c178 -178
323 -327 323 -333 0 -5 -145 -155 -322 -332 l-323 -323 -2185 0 -2185 0 -322
322 c-178 178 -323 327 -323 333 0 5 145 155 322 332 l323 323 2185 0 2185 0
322 -322z m7396 -6 l327 -327 -328 -328 -327 -327 -2180 0 -2180 0 -330 330
-330 330 325 325 325 325 2185 0 2185 0 328 -328z"/>
</g>
</svg>
