<svg id="Layer_1" data-name="Layer 1" xmlns="http://www.w3.org/2000/svg" viewBox="0 0 337.62 337.02"><defs><style>.cls-1{fill:#24356e;}</style></defs><path class="cls-1" d="M42.81,291.33A17.57,17.57,0,0,0,36,289.18a14.11,14.11,0,0,0,5.53-2.29,12,12,0,0,0,3.75-4.22,11.64,11.64,0,0,0,1.35-5.59A11.08,11.08,0,0,0,44.36,270a14,14,0,0,0-6.51-4.41A29.53,29.53,0,0,0,28,264.1H10.74v.7l4.65,3.91V314l-4.65,3.82v.7H28a32.39,32.39,0,0,0,11.35-1.84A17.09,17.09,0,0,0,47,311.36a13,13,0,0,0,2.74-8.29,12.75,12.75,0,0,0-1.91-7A14.06,14.06,0,0,0,42.81,291.33Zm-17.13-23.7H26.8a10,10,0,0,1,4.77,1.15,8.65,8.65,0,0,1,3.5,3.42,10.49,10.49,0,0,1,1.32,5.4,10.72,10.72,0,0,1-1.32,5.46,8.79,8.79,0,0,1-3.5,3.45,9.91,9.91,0,0,1-4.77,1.17H25.68Zm11.39,42.11a10.73,10.73,0,0,1-4.37,3.93A13.19,13.19,0,0,1,26.8,315H25.68V291.21H26.8a13,13,0,0,1,5.91,1.37,10.37,10.37,0,0,1,4.37,4.12,12.7,12.7,0,0,1,1.65,6.62A11.79,11.79,0,0,1,37.07,309.74Z"/><polygon class="cls-1" points="82.57 315 69.24 315 69.24 268.71 76.66 264.8 76.66 264.1 54.3 264.1 54.3 264.8 58.95 268.71 58.95 314.02 54.3 317.84 54.3 318.54 92.57 318.54 93.9 307.65 93.27 307.65 82.57 315"/><path class="cls-1" d="M126.9,264.8l7.42,3.91v40.94a15.36,15.36,0,0,1-5.57,3.76,17.59,17.59,0,0,1-6.68,1.35,10.79,10.79,0,0,1-5.55-1.42,9.8,9.8,0,0,1-3.83-4.18,14.61,14.61,0,0,1-1.4-6.65v-33.8l7.42-3.91v-.7H96.35v.7l4.66,3.91v33.7a18.67,18.67,0,0,0,2.08,8.94,14.75,14.75,0,0,0,6,6.08,18.86,18.86,0,0,0,9.32,2.19,28,28,0,0,0,9.06-1.38,19.16,19.16,0,0,0,6.83-3.9l1,4.2h13.9v-.7L144.6,314V268.71l4.66-3.91v-.7H126.9Z"/><polygon class="cls-1" points="182.74 315 170.49 315 170.49 294.05 185.64 294.05 187.88 288.06 170.49 290.51 170.49 267.63 182.81 267.63 188.48 274.87 189.14 274.87 193.16 264.1 155.55 264.1 155.55 264.8 160.2 268.71 160.2 313.92 155.55 317.84 155.55 318.54 192.74 318.54 194.07 307.65 193.37 307.65 182.74 315"/><path class="cls-1" d="M216.46,274.73h.74a25.75,25.75,0,0,1,14.34-7.1V314l-4.65,3.82v.7h19.59v-.7L241.83,314V267.63a21.11,21.11,0,0,1,6.72,2.64,18.27,18.27,0,0,1,5.14,4.46h.73l3.43-10.63h-38Z"/><polygon class="cls-1" points="261.39 264.8 266.04 268.71 266.04 314.02 261.35 317.84 261.35 318.54 280.98 318.54 280.98 317.84 276.33 314.02 276.33 268.71 281.01 264.8 281.01 264.1 261.39 264.1 261.39 264.8"/><polygon class="cls-1" points="326.19 307.65 315.55 315 303.3 315 303.3 294.05 318.45 294.05 320.69 288.06 303.3 290.51 303.3 267.63 315.62 267.63 321.29 274.87 321.95 274.87 325.97 264.1 288.36 264.1 288.36 264.8 293.01 268.71 293.01 313.92 288.36 317.84 288.36 318.54 325.55 318.54 326.88 307.65 326.19 307.65"/><path class="cls-1" d="M187.41,45.55a2.67,2.67,0,0,0,1,.89l42.37,23.09V54.4h-10a5.34,5.34,0,0,1,0-10.68h10V36.91L195.44,21.56a3.3,3.3,0,0,0-4.09,1.26l-8.46,13.23a2.91,2.91,0,0,0,.11,3.3Z"/><path class="cls-1" d="M195.27,202.22h-10l-.26-47.6c18.71-30.13,38.23-61.68,43.93-71-3.34-1.83-30.11-16.92-44.67-24.44a19.72,19.72,0,0,1-7-5.38c-3.16-4.2-5.7-8.86-8.93-13,0,0,0,0,0-.07-1.79-2.3-1.29-3.8.15-5.88,3.9-5.66,7.6-11.4,11.54-17.42h-19.9a2.34,2.34,0,0,0-2,1.07L133.59,55.92a4,4,0,0,0-.5,3.19l24.74,91.81a8.58,8.58,0,0,1-.94,6.67l-31.26,52.35L94.39,157.6a8.64,8.64,0,0,1-.93-6.68L118.19,59.1a4,4,0,0,0-.5-3.18L93.21,18.48a2.39,2.39,0,0,0-2-1.08H53.34a1.89,1.89,0,0,0-1,3.48l56.58,36.53a3.93,3.93,0,0,1,1.65,4.41l-26,89.9a6.68,6.68,0,0,0,.64,5.19l34.13,58.77a2.42,2.42,0,0,0,2.16,1.21l1.74,0,1.74,0H146.1a4.34,4.34,0,0,1,.33-.68c2.83-4.28,12.21-19.24,23.74-37.73l11.93,38.41h24.6l-2.82-8.45A9.07,9.07,0,0,0,195.27,202.22Z"/><path class="cls-1" d="M235.7,202.22h-10L224.09,124l-17.9,29.75,16.28,63.16h24.6l-2.83-8.49A9,9,0,0,0,235.7,202.22Z"/></svg>